<svg width="350" height="280" viewBox="0 0 350 280" fill="none" xmlns="http://www.w3.org/2000/svg">
<mask id="mask0_39_111" style="mask-type:alpha" maskUnits="userSpaceOnUse" x="-88" y="-123" width="526" height="526">
<line x1="-8.74228e-09" y1="12.4003" x2="350" y2="12.4003" stroke="black" stroke-opacity="0.7" stroke-width="0.2"/>
<line x1="-8.74228e-09" y1="27.4003" x2="350" y2="27.4003" stroke="black" stroke-opacity="0.7" stroke-width="0.2"/>
<line x1="-8.74228e-09" y1="42.4004" x2="350" y2="42.4003" stroke="black" stroke-opacity="0.7" stroke-width="0.2"/>
<line x1="-8.74228e-09" y1="57.4004" x2="350" y2="57.4004" stroke="black" stroke-opacity="0.7" stroke-width="0.2"/>
<line x1="-8.74228e-09" y1="72.4004" x2="350" y2="72.4004" stroke="black" stroke-opacity="0.7" stroke-width="0.2"/>
<line x1="-8.74228e-09" y1="87.4005" x2="350" y2="87.4004" stroke="black" stroke-opacity="0.7" stroke-width="0.2"/>
<line x1="-8.74228e-09" y1="102.4" x2="350" y2="102.4" stroke="black" stroke-opacity="0.7" stroke-width="0.2"/>
<line x1="-8.74228e-09" y1="117.401" x2="350" y2="117.4" stroke="black" stroke-opacity="0.7" stroke-width="0.2"/>
<line x1="-8.74228e-09" y1="132.401" x2="350" y2="132.401" stroke="black" stroke-opacity="0.7" stroke-width="0.2"/>
<line x1="-8.74228e-09" y1="147.401" x2="350" y2="147.401" stroke="black" stroke-opacity="0.7" stroke-width="0.2"/>
<line x1="-8.74228e-09" y1="162.401" x2="350" y2="162.401" stroke="black" stroke-opacity="0.7" stroke-width="0.2"/>
<line x1="-8.74228e-09" y1="177.401" x2="350" y2="177.401" stroke="black" stroke-opacity="0.7" stroke-width="0.2"/>
<line x1="-8.74228e-09" y1="192.401" x2="350" y2="192.401" stroke="black" stroke-opacity="0.7" stroke-width="0.2"/>
<line x1="-8.74228e-09" y1="207.401" x2="350" y2="207.401" stroke="black" stroke-opacity="0.7" stroke-width="0.2"/>
<line x1="-8.74228e-09" y1="222.401" x2="350" y2="222.401" stroke="black" stroke-opacity="0.7" stroke-width="0.2"/>
<line x1="-8.74228e-09" y1="237.401" x2="350" y2="237.401" stroke="black" stroke-opacity="0.7" stroke-width="0.2"/>
<line x1="-8.74228e-09" y1="252.401" x2="350" y2="252.401" stroke="black" stroke-opacity="0.7" stroke-width="0.2"/>
<line x1="-8.74228e-09" y1="267.401" x2="350" y2="267.401" stroke="black" stroke-opacity="0.7" stroke-width="0.2"/>
<line x1="2.39951" y1="315.001" x2="2.39948" y2="-34.9995" stroke="black" stroke-opacity="0.7" stroke-width="0.2"/>
<line x1="17.4" y1="315.001" x2="17.4" y2="-34.9995" stroke="black" stroke-opacity="0.7" stroke-width="0.2"/>
<line x1="32.4" y1="315.001" x2="32.4" y2="-34.9995" stroke="black" stroke-opacity="0.7" stroke-width="0.2"/>
<line x1="47.4" y1="315.001" x2="47.4" y2="-34.9995" stroke="black" stroke-opacity="0.7" stroke-width="0.2"/>
<line x1="62.4" y1="315.001" x2="62.4" y2="-34.9995" stroke="black" stroke-opacity="0.7" stroke-width="0.2"/>
<line x1="77.4" y1="315.001" x2="77.4" y2="-34.9995" stroke="black" stroke-opacity="0.7" stroke-width="0.2"/>
<line x1="92.4" y1="315.001" x2="92.4" y2="-34.9995" stroke="black" stroke-opacity="0.7" stroke-width="0.2"/>
<line x1="107.4" y1="315.001" x2="107.4" y2="-34.9995" stroke="black" stroke-opacity="0.7" stroke-width="0.2"/>
<line x1="122.4" y1="315.001" x2="122.4" y2="-34.9995" stroke="black" stroke-opacity="0.7" stroke-width="0.2"/>
<line x1="137.4" y1="315.001" x2="137.4" y2="-34.9995" stroke="black" stroke-opacity="0.7" stroke-width="0.2"/>
<line x1="152.4" y1="315.001" x2="152.4" y2="-34.9995" stroke="black" stroke-opacity="0.7" stroke-width="0.2"/>
<line x1="167.4" y1="315.001" x2="167.4" y2="-34.9995" stroke="black" stroke-opacity="0.7" stroke-width="0.2"/>
<line x1="182.4" y1="315.001" x2="182.4" y2="-34.9995" stroke="black" stroke-opacity="0.7" stroke-width="0.2"/>
<line x1="197.4" y1="315.001" x2="197.4" y2="-34.9995" stroke="black" stroke-opacity="0.7" stroke-width="0.2"/>
<line x1="212.4" y1="315.001" x2="212.4" y2="-34.9995" stroke="black" stroke-opacity="0.7" stroke-width="0.2"/>
<line x1="227.4" y1="315.001" x2="227.4" y2="-34.9995" stroke="black" stroke-opacity="0.7" stroke-width="0.2"/>
<line x1="242.4" y1="315.001" x2="242.4" y2="-34.9995" stroke="black" stroke-opacity="0.7" stroke-width="0.2"/>
<line x1="257.4" y1="315.001" x2="257.4" y2="-34.9995" stroke="black" stroke-opacity="0.7" stroke-width="0.2"/>
<line x1="272.4" y1="315.001" x2="272.4" y2="-34.9995" stroke="black" stroke-opacity="0.7" stroke-width="0.2"/>
<line x1="287.4" y1="315.001" x2="287.4" y2="-34.9995" stroke="black" stroke-opacity="0.7" stroke-width="0.2"/>
<line x1="302.4" y1="315.001" x2="302.4" y2="-34.9995" stroke="black" stroke-opacity="0.7" stroke-width="0.2"/>
<line x1="317.4" y1="315.001" x2="317.4" y2="-34.9995" stroke="black" stroke-opacity="0.7" stroke-width="0.2"/>
<line x1="332.4" y1="315.001" x2="332.4" y2="-34.9995" stroke="black" stroke-opacity="0.7" stroke-width="0.2"/>
<line x1="347.4" y1="315.001" x2="347.4" y2="-34.9995" stroke="black" stroke-opacity="0.7" stroke-width="0.2"/>
</mask>
<g mask="url(#mask0_39_111)">
<g filter="url(#filter0_f_39_111)">
<rect y="48" width="350" height="185" fill="#D9D9D9"/>
</g>
</g>
<defs>
<filter id="filter0_f_39_111" x="-60" y="-12" width="470" height="305" filterUnits="userSpaceOnUse" color-interpolation-filters="sRGB">
<feFlood flood-opacity="0" result="BackgroundImageFix"/>
<feBlend mode="normal" in="SourceGraphic" in2="BackgroundImageFix" result="shape"/>
<feGaussianBlur stdDeviation="30" result="effect1_foregroundBlur_39_111"/>
</filter>
</defs>
</svg>
